<svg width="165" height="165" viewBox="0 0 165 165" fill="none" xmlns="http://www.w3.org/2000/svg">
<rect width="165" height="165" fill="#F0F7FF"/>
<path d="M4.64953 29.98V70H13.8895V55.96H19.5295C22.3495 55.96 26.5495 55.66 29.7295 52.42C31.2295 50.86 33.1495 48.04 33.1495 43C33.1495 40.24 32.6695 36.28 29.2495 33.28C26.0695 30.46 22.2295 29.98 18.7495 29.98H4.64953ZM13.8895 37.54H17.0095C18.8095 37.54 20.7895 37.72 22.1695 39.04C23.0695 39.88 23.6695 41.26 23.6695 42.94C23.6695 44.68 23.0095 46.06 22.1695 46.9C20.6695 48.34 18.4495 48.4 17.1895 48.4H13.8895V37.54ZM63.1055 29.98H40.4855V70H63.1055V62.2H49.7255V53.32H62.4455V45.52H49.7255V37.78H63.1055V29.98ZM81.3427 70V44.08L103.063 70H111.103V29.98H101.863V55.78L80.1427 29.98H72.1027V70H81.3427ZM130.597 70V44.08L152.317 70H160.357V29.98H151.117V55.78L129.397 29.98H121.357V70H130.597ZM40.0172 136H49.6172L33.8372 95.98H25.3772L9.23719 136H18.8372L21.8972 128.44H37.0172L40.0172 136ZM24.5972 121.36L29.5772 107.92L34.4972 121.36H24.5972ZM55.6027 95.98V136H64.8427V121.96H70.4827C73.3027 121.96 77.5027 121.66 80.6827 118.42C82.1827 116.86 84.1027 114.04 84.1027 109C84.1027 106.24 83.6227 102.28 80.2027 99.28C77.0227 96.46 73.1827 95.98 69.7027 95.98H55.6027ZM64.8427 103.54H67.9627C69.7627 103.54 71.7427 103.72 73.1227 105.04C74.0227 105.88 74.6227 107.26 74.6227 108.94C74.6227 110.68 73.9627 112.06 73.1227 112.9C71.6227 114.34 69.4027 114.4 68.1427 114.4H64.8427V103.54ZM91.4386 95.98V136H100.679V121.96H106.319C109.139 121.96 113.339 121.66 116.519 118.42C118.019 116.86 119.939 114.04 119.939 109C119.939 106.24 119.459 102.28 116.039 99.28C112.859 96.46 109.019 95.98 105.539 95.98H91.4386ZM100.679 103.54H103.799C105.599 103.54 107.579 103.72 108.959 105.04C109.859 105.88 110.459 107.26 110.459 108.94C110.459 110.68 109.799 112.06 108.959 112.9C107.459 114.34 105.239 114.4 103.979 114.4H100.679V103.54ZM152.055 99.04C147.375 95.56 142.935 95.08 140.175 95.08C136.455 95.08 133.095 95.86 130.275 98.74C127.875 101.2 126.795 104.2 126.795 107.74C126.795 109.66 127.095 112.48 129.195 114.7C130.755 116.38 132.915 117.22 134.775 117.88L138.075 119.02C139.215 119.44 141.675 120.34 142.755 121.24C143.595 121.96 144.135 122.8 144.135 124.12C144.135 125.62 143.475 126.7 142.695 127.36C141.375 128.5 139.695 128.74 138.495 128.74C136.635 128.74 135.015 128.26 133.455 127.3C132.375 126.64 130.755 125.26 129.735 124.24L124.935 130.84C126.435 132.34 128.775 134.2 130.815 135.22C133.335 136.48 135.855 136.9 138.735 136.9C141.375 136.9 146.535 136.54 150.075 132.82C152.175 130.66 153.615 127.06 153.615 122.92C153.615 120.58 153.015 117.7 150.675 115.48C149.115 113.98 146.955 113.08 145.215 112.42L142.215 111.28C139.515 110.26 138.135 109.9 137.175 109C136.575 108.46 136.275 107.74 136.275 106.78C136.275 105.76 136.695 104.86 137.295 104.26C138.375 103.06 139.935 102.88 141.195 102.88C142.335 102.88 144.915 103.06 147.915 105.76L152.055 99.04Z" fill="#0F2944"/>
</svg>
