<svg id="Layer_1" data-name="Layer 1" xmlns="http://www.w3.org/2000/svg" viewBox="0 0 320 320"><defs><style>.cls-1{fill:#c8e0fb;}.cls-2{fill:#e8f3ff;}.cls-3{fill:none;stroke:#c8e0fb;stroke-miterlimit:10;stroke-width:2.61px;}</style></defs><rect class="cls-1" x="66.05" y="74.57" width="161.61" height="193.22" rx="6.59"/><path class="cls-2" d="M254,85V238.86a6.59,6.59,0,0,1-6.58,6.58H98.93a6.59,6.59,0,0,1-6.59-6.58V58.79a6.59,6.59,0,0,1,6.59-6.59H221.19Z"/><path class="cls-1" d="M254,85H227.77a6.58,6.58,0,0,1-6.58-6.58V52.2Z"/><path class="cls-3" d="M190.39,141H155.9c0-14,4.9-22.9,17.25-22.9S190.39,126.93,190.39,141Z"/><rect class="cls-3" x="151.62" y="140.97" width="43.06" height="38.61" rx="3.29"/><path class="cls-3" d="M179.19,169.23H167.11l3.35-8.92a4.9,4.9,0,1,1,5.39,0Z"/></svg>